<svg width="48" height="48" viewBox="0 0 48 48" fill="none" xmlns="http://www.w3.org/2000/svg">
<path fill-rule="evenodd" clip-rule="evenodd" d="M9.375 38.625C11.625 40.875 14.35 42 17.55 42H30.45C33.65 42 36.375 40.875 38.625 38.625C40.875 36.375 42 33.65 42 30.45V17.55C42 14.35 40.875 11.625 38.625 9.375C36.375 7.125 33.65 6 30.45 6H17.55C14.35 6 11.625 7.125 9.375 9.375C7.125 11.625 6 14.35 6 17.55V30.45C6 33.65 7.125 36.375 9.375 38.625ZM21.95 31.75L33.95 19.75L31.8 17.6L21.95 27.45L17.1 22.6L14.95 24.75L21.95 31.75Z" fill="#B1361E" fill-opacity="0.5"/>
</svg>
