<svg width="204" height="36" viewBox="0 0 204 36" fill="none" xmlns="http://www.w3.org/2000/svg">
<g clip-path="url(#clip0_239_3019)">
<path fill-rule="evenodd" clip-rule="evenodd" d="M35.876 35.6211H17.0368C14.7281 35.6211 12.5425 35.205 10.4801 34.3728C8.41759 33.5407 6.61681 32.3849 5.07766 30.9055C3.5385 29.426 2.32259 27.6616 1.42988 25.6119C0.537168 23.5623 0.0908203 21.3201 0.0908203 18.8853C0.0908203 16.4812 0.521777 14.2544 1.3837 12.2048C2.24563 10.1552 3.43846 8.37528 4.96222 6.86504C6.48598 5.35481 8.27137 4.17591 10.3184 3.32833C12.3655 2.48075 14.5896 2.05696 16.9906 2.05696C19.2994 2.05696 21.4619 2.47304 23.4782 3.30521C25.4944 4.13739 27.2568 5.28546 28.7651 6.74947C30.2735 8.21347 31.4663 9.93944 32.3436 11.9274C33.221 13.9154 33.6596 16.0805 33.6596 18.4229C33.6596 19.8099 33.498 21.1737 33.1748 22.5144C32.8516 23.8552 32.3744 25.1111 31.7434 26.2823C31.1123 27.4535 30.3274 28.5014 29.3885 29.4261C28.4496 30.3507 27.3799 31.0904 26.1794 31.6452V31.7376H35.876V35.6211ZM16.8521 31.4602C18.6375 31.4602 20.2767 31.1289 21.7697 30.4663C23.2627 29.8036 24.5402 28.8944 25.6022 27.7386C26.6642 26.5828 27.4876 25.219 28.0725 23.6471C28.6574 22.0752 28.9498 20.3955 28.9498 18.6079C28.9498 16.8819 28.6497 15.2638 28.0494 13.7535C27.4492 12.2433 26.6103 10.9334 25.5329 9.82387C24.4555 8.7143 23.178 7.83591 21.7004 7.18867C20.2228 6.54142 18.6068 6.2178 16.8521 6.2178C15.1283 6.2178 13.5353 6.54142 12.0731 7.18867C10.6109 7.83591 9.3411 8.7143 8.26369 9.82387C7.18628 10.9334 6.33976 12.2356 5.7241 13.7304C5.10844 15.2253 4.80061 16.8202 4.80061 18.5154C4.80061 20.303 5.09304 21.9828 5.67792 23.5546C6.2628 25.1265 7.08624 26.498 8.14825 27.6693C9.21027 28.8405 10.4801 29.7651 11.9576 30.4431C13.4352 31.1212 15.0667 31.4602 16.8521 31.4602ZM58.8708 35.6211H54.7151V32.2462H54.6228C54.0995 33.4174 53.1914 34.3651 51.8985 35.0894C50.6056 35.8137 49.1126 36.1759 47.4196 36.1759C46.3422 36.1759 45.3263 36.0141 44.3721 35.6904C43.4178 35.3668 42.579 34.866 41.8556 34.1879C41.1322 33.5098 40.555 32.6392 40.124 31.5758C39.6931 30.5125 39.4776 29.2565 39.4776 27.808V13.7073H43.6333V26.6522C43.6333 27.6693 43.7718 28.5399 44.0489 29.2642C44.3259 29.9885 44.6953 30.5741 45.157 31.021C45.6188 31.468 46.1498 31.7916 46.7501 31.9919C47.3503 32.1922 47.9737 32.2924 48.6201 32.2924C49.482 32.2924 50.2824 32.1537 51.0212 31.8763C51.76 31.5989 52.4064 31.1597 52.9605 30.5587C53.5146 29.9577 53.9456 29.1949 54.2534 28.2703C54.5612 27.3456 54.7151 26.2515 54.7151 24.9878V13.7073H58.8708V35.6211ZM65.2429 16.3888C66.4127 15.31 67.7671 14.501 69.3062 13.9616C70.8454 13.4222 72.3845 13.1525 73.9237 13.1525C75.5244 13.1525 76.9019 13.3529 78.0563 13.7535C79.2107 14.1542 80.1572 14.6936 80.896 15.3717C81.6348 16.0497 82.1812 16.8279 82.5352 17.7064C82.8892 18.5848 83.0662 19.5017 83.0662 20.4571V31.6452C83.0662 32.4157 83.0816 33.1246 83.1124 33.7718C83.1432 34.4191 83.1893 35.0355 83.2509 35.6211H79.557C79.4646 34.5115 79.4184 33.402 79.4184 32.2924H79.3261C78.4026 33.7102 77.3098 34.7119 76.0477 35.2975C74.7856 35.8831 73.3234 36.1759 71.6611 36.1759C70.6453 36.1759 69.6756 36.0372 68.7522 35.7598C67.8287 35.4824 67.0206 35.0663 66.328 34.5115C65.6354 33.9567 65.089 33.271 64.6888 32.4542C64.2886 31.6375 64.0885 30.6897 64.0885 29.611C64.0885 28.1932 64.4041 27.0066 65.0351 26.0512C65.6662 25.0957 66.5281 24.3175 67.6209 23.7165C68.7137 23.1154 69.9912 22.684 71.4534 22.422C72.9156 22.16 74.4778 22.029 76.1401 22.029H79.1876V21.1044C79.1876 20.5496 79.0798 19.9948 78.8643 19.44C78.6489 18.8853 78.3256 18.3844 77.8947 17.9375C77.4637 17.4906 76.925 17.1362 76.2786 16.8742C75.6321 16.6122 74.8626 16.4812 73.9699 16.4812C73.1695 16.4812 72.4692 16.5583 71.8689 16.7124C71.2687 16.8665 70.7223 17.0591 70.2297 17.2903C69.7372 17.5214 69.2909 17.7911 68.8907 18.0993C68.4905 18.4075 68.1057 18.7003 67.7363 18.9777L65.2429 16.3888ZM76.9712 25.0803C75.9861 25.0803 74.978 25.1342 73.9468 25.2421C72.9155 25.35 71.9767 25.558 71.1301 25.8662C70.2836 26.1744 69.591 26.6059 69.0523 27.1607C68.5136 27.7155 68.2442 28.4244 68.2442 29.2874C68.2442 30.551 68.6675 31.4602 69.514 32.015C70.3606 32.5698 71.5072 32.8472 72.954 32.8472C74.093 32.8472 75.0626 32.6546 75.863 32.2693C76.6634 31.884 77.3098 31.3832 77.8023 30.7668C78.2949 30.1503 78.6489 29.4646 78.8643 28.7095C79.0798 27.9543 79.1876 27.2069 79.1876 26.4672V25.0803H76.9712ZM89.4383 0.670013H93.594V35.6211H89.4383V0.670013ZM100.52 13.7073H104.676V35.6211H100.52V13.7073ZM99.5505 5.84795C99.5505 5.01578 99.8506 4.2992 100.451 3.69818C101.051 3.09717 101.767 2.79667 102.598 2.79667C103.429 2.79667 104.145 3.09717 104.745 3.69818C105.345 4.2992 105.645 5.01578 105.645 5.84795C105.645 6.68012 105.345 7.3967 104.745 7.99772C104.145 8.59873 103.429 8.89923 102.598 8.89923C101.767 8.89923 101.051 8.59873 100.451 7.99772C99.8506 7.3967 99.5505 6.68012 99.5505 5.84795ZM112.895 17.3134H108.185V13.7073H112.895V8.80677C112.895 5.87876 113.457 3.69819 114.58 2.265C115.704 0.831817 117.635 0.115234 120.375 0.115234C120.837 0.115234 121.322 0.130645 121.83 0.161466C122.338 0.192287 122.884 0.284749 123.469 0.438855L123.007 4.13738C122.607 3.98328 122.222 3.8754 121.853 3.81376C121.483 3.75212 121.083 3.7213 120.652 3.7213C119.883 3.7213 119.267 3.83688 118.805 4.06803C118.343 4.29919 117.982 4.63052 117.72 5.06201C117.458 5.49351 117.289 6.00976 117.212 6.61077C117.135 7.21178 117.097 7.89755 117.097 8.66808V13.7073H122.037V17.3134H117.051V35.6211H112.895V17.3134ZM126.978 13.7073H131.134V35.6211H126.978V13.7073ZM126.008 5.84795C126.008 5.01578 126.309 4.2992 126.909 3.69818C127.509 3.09717 128.225 2.79667 129.056 2.79667C129.887 2.79667 130.603 3.09717 131.203 3.69818C131.803 4.2992 132.103 5.01578 132.103 5.84795C132.103 6.68012 131.803 7.3967 131.203 7.99772C130.603 8.59873 129.887 8.89923 129.056 8.89923C128.225 8.89923 127.509 8.59873 126.909 7.99772C126.309 7.3967 126.008 6.68012 126.008 5.84795ZM140.877 26.1898C140.877 27.1453 141.084 28.016 141.5 28.8019C141.915 29.5879 142.462 30.2582 143.139 30.813C143.816 31.3678 144.601 31.7993 145.494 32.1075C146.387 32.4157 147.31 32.5698 148.264 32.5698C149.557 32.5698 150.681 32.2693 151.635 31.6683C152.589 31.0673 153.467 30.2736 154.267 29.2874L157.407 31.6914C155.098 34.6811 151.866 36.1759 147.71 36.1759C145.987 36.1759 144.424 35.8831 143.024 35.2975C141.623 34.7119 140.438 33.9028 139.468 32.8703C138.499 31.8378 137.752 30.6204 137.229 29.218C136.705 27.8156 136.444 26.2977 136.444 24.6642C136.444 23.0307 136.729 21.5128 137.298 20.1104C137.868 18.708 138.652 17.4906 139.653 16.4581C140.653 15.4256 141.846 14.6165 143.231 14.0309C144.617 13.4453 146.125 13.1525 147.757 13.1525C149.696 13.1525 151.335 13.4916 152.674 14.1696C154.013 14.8477 155.114 15.7338 155.976 16.828C156.838 17.9221 157.461 19.1549 157.846 20.5265C158.23 21.898 158.423 23.2927 158.423 24.7104V26.1898H140.877ZM153.99 22.8612C153.959 21.9365 153.813 21.089 153.551 20.3184C153.29 19.5479 152.897 18.8776 152.374 18.3074C151.851 17.7372 151.197 17.2903 150.412 16.9666C149.627 16.643 148.711 16.4812 147.664 16.4812C146.648 16.4812 145.717 16.6738 144.871 17.0591C144.024 17.4444 143.308 17.9452 142.724 18.5616C142.139 19.1781 141.685 19.8638 141.361 20.6189C141.038 21.3741 140.877 22.1215 140.877 22.8612H153.99ZM185.343 35.6211H181.187V32.4773H181.094C180.294 33.6485 179.194 34.5578 177.793 35.205C176.392 35.8522 174.953 36.1759 173.476 36.1759C171.783 36.1759 170.251 35.8831 168.881 35.2975C167.511 34.7119 166.342 33.8951 165.372 32.8472C164.402 31.7993 163.656 30.5819 163.133 29.1949C162.609 27.8079 162.348 26.2977 162.348 24.6642C162.348 23.0307 162.609 21.5128 163.133 20.1104C163.656 18.708 164.402 17.4906 165.372 16.4581C166.342 15.4256 167.511 14.6165 168.881 14.0309C170.251 13.4453 171.783 13.1525 173.476 13.1525C175.046 13.1525 176.523 13.4839 177.908 14.1465C179.294 14.8092 180.356 15.7107 181.094 16.8511H181.187V0.670013H185.343V35.6211ZM173.984 32.2924C175.092 32.2924 176.092 32.0998 176.985 31.7145C177.878 31.3293 178.632 30.8053 179.247 30.1426C179.863 29.48 180.34 28.6786 180.679 27.7386C181.018 26.7986 181.187 25.7738 181.187 24.6642C181.187 23.5546 181.018 22.5299 180.679 21.5898C180.34 20.6498 179.863 19.8484 179.247 19.1858C178.632 18.5231 177.878 17.9992 176.985 17.6139C176.092 17.2286 175.092 17.036 173.984 17.036C172.875 17.036 171.875 17.2286 170.982 17.6139C170.09 17.9992 169.335 18.5231 168.72 19.1858C168.104 19.8484 167.627 20.6498 167.288 21.5898C166.95 22.5299 166.78 23.5546 166.78 24.6642C166.78 25.7738 166.95 26.7986 167.288 27.7386C167.627 28.6786 168.104 29.48 168.72 30.1426C169.335 30.8053 170.09 31.3293 170.982 31.7145C171.875 32.0998 172.875 32.2924 173.984 32.2924Z" fill="white"/>
<path d="M200.404 8.71563C202.39 8.71563 204 7.10385 204 5.11563C204 3.1274 202.39 1.51562 200.404 1.51562C198.419 1.51562 196.809 3.1274 196.809 5.11563C196.809 7.10385 198.419 8.71563 200.404 8.71563Z" fill="#6ABE79"/>
<path opacity="0.8" d="M200.404 22.7366C202.39 22.7366 204 21.1248 204 19.1366C204 17.1484 202.39 15.5366 200.404 15.5366C198.419 15.5366 196.809 17.1484 196.809 19.1366C196.809 21.1248 198.419 22.7366 200.404 22.7366Z" fill="#6ABE79"/>
<path opacity="0.4" d="M200.404 35.9998C202.39 35.9998 204 34.388 204 32.3998C204 30.4116 202.39 28.7998 200.404 28.7998C198.419 28.7998 196.809 30.4116 196.809 32.3998C196.809 34.388 198.419 35.9998 200.404 35.9998Z" fill="#6ABE79"/>
</g>
<defs>
<clipPath id="clip0_239_3019">
<rect width="204" height="36" fill="white"/>
</clipPath>
</defs>
</svg>
